<?xml version="1.0" encoding="utf-8"?>
<!-- Generator: Adobe Illustrator 25.2.0, SVG Export Plug-In . SVG Version: 6.00 Build 0)  -->
<svg version="1.1" id="레이어_1" xmlns="http://www.w3.org/2000/svg" xmlns:xlink="http://www.w3.org/1999/xlink" x="0px"
	 y="0px" viewBox="0 0 500 200" style="enable-background:new 0 0 500 200;" xml:space="preserve">
<style type="text/css">
	.st0{fill:#FFFFFF;}
</style>
<g>
	<g>
		<path class="st0" d="M94.5,101.1c0-9.7-10.7-12.1-10.7-12.1s-1.3-7.4-5-9.1c-3.7-1.7-10-1.7-10-1.7S67.6,70,58.9,70h-0.2
			c-8.7,0-10.5,8.3-10.5,8.3s-6.3,0-10,1.7c-3.7,1.7-5,9.1-5,9.1s-10.7,2.4-10.7,12.1c0,5,5.7,9.4,5.7,9.4s-0.3,10.1,5.7,10.8
			c8,0.8,13-6.2,13-6.2v15H52v-15.3c0,0,2.3,5.4,6.5,5.5c4.2-0.1,6.5-5.5,6.5-5.5V130h5.2v-15c0,0,5,7.1,13,6.2
			c6-0.6,5.7-10.8,5.7-10.8S94.5,106.2,94.5,101.1z M58.7,113.8c-4,0-3.7-8.6-3.7-8.6h7.2C62.2,105.2,62.7,113.8,58.7,113.8z
			 M83.4,108c0,0,1.2,7-2.2,7.7c-5.6,1.3-9.1-10.3-9.1-10.3H78c0,0,2-0.5,2-2.9c0-2.4-2.2-2.7-2.2-2.7h-5.2c0,0-2.3,0.2-2.3-2.4v-3
			c0,0-0.3-2.5-2.7-2.5c-2.3,0-2.8,2.4-2.8,2.4l0.2,2.9c0,0,0,2.7-1.5,2.7h-4.8h-4.8c-1.5,0-1.5-2.7-1.5-2.7l0.2-2.9
			c0,0-0.5-2.4-2.8-2.4c-2.3,0-2.7,2.5-2.7,2.5v3c0,2.5-2.3,2.4-2.3,2.4h-5.2c0,0-2.2,0.3-2.2,2.7c0,2.4,2,2.9,2,2.9h5.8
			c0,0-3.5,11.6-9.1,10.3c-3.4-0.8-2.2-7.7-2.2-7.7s-5.7-3.4-5.7-7.1c0-7.2,8.8-6.2,8.8-6.2s1-6.5,3.8-9c3.6-3.1,9.3-1.2,9.3-1.2
			s2.2-8.7,8.3-9.2h0.3c6,0.5,8.2,9.2,8.2,9.2s5.8-1.9,9.4,1.2c2.8,2.5,3.8,9,3.8,9s8.8-1,8.8,6.2C89.1,104.6,83.4,108,83.4,108z"/>
		<path class="st0" d="M58.7,120.3c-0.1,0-0.1,0-0.2,0c-0.1,0-0.1,0-0.2,0H58.7z"/>
	</g>
	<g>
		<path class="st0" d="M136.4,103.4c7.7,0.5,15.6,2.8,15.6,8.2c0,11-37.9,11-37.9,0c0-5.4,7.9-7.7,15.5-8.2v-3h-17.2v-4h41.2v4
			h-17.2V103.4z M114.6,88.9h5.1v-6.5h-5.1v-4h36.8v4h-5.2v6.5h5.2v4h-36.8V88.9z M144.7,111.6c0-5.9-23.2-6-23.2,0
			C121.5,117.4,144.7,117.4,144.7,111.6z M126.6,82.4v6.5h13v-6.5H126.6z"/>
		<path class="st0" d="M178.6,86.9v-4.6h-19.3v-4h26v12.6h-19.2v4.7h13.2c4.1,0,7.8,0,12.1-1.3V77.4h6.9v23.2h-6.9v-2.3
			c-3.9,1.1-7.9,1.4-12,1.4h-12.7c-4.2,0-7.5-2.9-7.5-6.3v-6.4H178.6z M198.3,103.1v15.2h-28.8c-4.2,0-7.4-2.8-7.4-6.3v-8.9H198.3z
			 M169,107.1v7.2h22.5v-7.2H169z"/>
		<path class="st0" d="M228.2,118.4h-6.8v-13.1h-17.2v-4h41.2v4h-17.2V118.4z M243.2,78.3v18.5h-29.3c-4.2,0-7.5-2.9-7.5-6.3V78.3
			H243.2z M213.2,82.3v10.4h23.2V82.3H213.2z"/>
		<path class="st0" d="M262.1,77.8c18.7,0,18.6,22.5,0,22.5C243.6,100.4,243.3,77.8,262.1,77.8z M282.4,107.1h-30v-4h36.7v15.2h-6.8
			V107.1z M262.1,95.9c9.3,0,9.2-13.6,0-13.6C252.7,82.3,252.5,95.9,262.1,95.9z M289.2,100.8h-6.8V77.4h6.8v5h5.4v4.5h-5.4v4.1h5.4
			v4.5h-5.4V100.8z"/>
		<path class="st0" d="M319.9,118.4h-6.8v-13.5h-17.2v-4h41.2v4h-17.2V118.4z M316.5,88.4c-3,3.7-11.2,7.7-17.9,8.8l-2.6-3.9
			c6.8-1.9,14.5-4.5,16.6-10.9h-15v-4h37.9v4h-15c2.2,6.4,9.9,9,16.6,10.9l-2.6,3.9C328.3,96.3,320,92.7,316.5,88.4z"/>
		<path class="st0" d="M356.8,91.5c-1.8,2.9-8.5,7.9-13.7,9.2l-2.5-4.2c6.3-2.7,13.2-7.1,13.2-13.7v-4.5h6.8v4.5
			c0,6.3,6.3,11,13.1,13.9l-2.5,4.1C365.7,99.1,360.3,95.4,356.8,91.5z M375.7,107.6h-30v-4h36.8v14.8h-6.8V107.6z M375.7,77.4h6.8
			v23.9h-6.8V77.4z"/>
		<path class="st0" d="M422.1,112.9c-3.7,1.4-7.8,1.5-11.8,1.5h-23.2v-4h11.4v-4.1c-11.8-3.3-13.1-17-2.5-23h-7.3v-4h9.6v-2.7h7.3
			v2.7h9.6v4h-7.2c10.7,6.1,9.1,19.9-2.6,23v4h5.8c3.7,0,7.4-0.2,10.8-1.5V77.4h6.8v41h-6.8V112.9z M402.1,102.7
			c8.4,0,8.7-16.8,0-16.8C393.3,85.9,393.5,102.7,402.1,102.7z"/>
		<path class="st0" d="M446.7,105.2c-2.4,3.6-8.2,7.8-12.6,9.5l-2.7-4c7.8-4.4,11.9-9,11.9-17.2V78.3h6.8v15.2
			c0,7.7,4.2,13.3,11.9,17.2l-2.6,4C454.4,112.9,449.7,108.8,446.7,105.2z M472.1,118.4h-6.8V77.4h6.8v12.2h5.4v4h-5.4V118.4z"/>
	</g>
</g>
</svg>
