<svg xmlns="http://www.w3.org/2000/svg" width="24" height="24" fill="none" viewBox="0 0 24 24">
    <path fill="#222" d="M9.425 18.206c-.143.534-.691.85-1.225.707-.533-.143-.85-.691-.707-1.224l.529-1.974c-1.178-.434-2.273-1.068-3.237-1.872l-1.446 1.446c-.39.391-1.024.391-1.414 0-.391-.39-.391-1.024 0-1.414l1.446-1.446c-1.002-1.2-1.733-2.597-2.149-4.097-.147-.531.218-1.053.76-1.152.545-.1 1.06.264 1.219.794 1.11 3.711 4.55 6.416 8.623 6.416 4.072 0 7.513-2.705 8.623-6.416.159-.53.674-.894 1.218-.795.543.099.908.62.76 1.153-.414 1.499-1.145 2.897-2.147 4.097l1.446 1.446c.39.39.39 1.024 0 1.414-.391.391-1.025.391-1.415 0l-1.446-1.446c-.964.804-2.059 1.438-3.237 1.872l.528 1.974c.143.534-.173 1.082-.707 1.224-.533.143-1.08-.173-1.224-.706l-.529-1.975c-1.238.212-2.502.212-3.74 0l-.53 1.974z"/>
</svg>
