<svg xmlns="http://www.w3.org/2000/svg" width="16" height="16" fill="none" viewBox="0 0 16 16">
    <path fill="#262626" d="M15.457 7.797c-.022-.05-.551-1.224-1.728-2.4C12.16 3.827 10.179 3 8 3c-2.18 0-4.16.828-5.729 2.396C1.094 6.573.565 7.748.543 7.796.515 7.862.5 7.93.5 8c0 .07.015.14.043.203.022.05.551 1.223 1.728 2.4C3.84 12.171 5.821 13 8 13c2.18 0 4.16-.828 5.729-2.396 1.177-1.177 1.706-2.35 1.728-2.4.028-.064.043-.133.043-.203s-.015-.14-.043-.203zM8 5.75c.445 0 .88.132 1.25.38.37.246.658.598.829 1.009.17.411.215.864.128 1.3-.087.436-.301.837-.616 1.152-.315.315-.716.529-1.152.616-.437.087-.889.042-1.3-.128-.411-.17-.763-.459-1.01-.829-.247-.37-.379-.805-.379-1.25 0-.596.238-1.168.66-1.59.422-.422.993-.66 1.59-.66z"/>
</svg>
