<svg xmlns="http://www.w3.org/2000/svg" width="16" height="16" fill="none" viewBox="0 0 16 16">
    <path fill="#262626" d="M15.457 7.797c-.022-.049-.551-1.223-1.728-2.4C12.16 3.829 10.179 3 8 3c-.46 0-.92.037-1.375.112-.088.015-.171.053-.24.111-.069.058-.12.134-.15.218-.03.085-.035.177-.017.265.018.088.06.17.12.236l6.33 6.963c.09.098.213.157.345.163.132.007.26-.038.359-.127 1.426-1.277 2.059-2.678 2.085-2.737.028-.064.043-.134.043-.204 0-.07-.015-.139-.043-.203zM3.37 2.164c-.09-.098-.214-.157-.346-.163-.133-.007-.262.04-.36.129-.099.09-.157.214-.163.346-.007.133.04.262.129.36L3.833 4.16C1.563 5.552.587 7.7.543 7.797.515 7.861.5 7.931.5 8.001c0 .07.015.139.043.203.022.049.551 1.223 1.728 2.4C3.84 12.17 5.821 13 8 13c1.12.007 2.23-.224 3.254-.677l1.376 1.513c.09.098.214.157.346.163.133.007.262-.04.36-.129.098-.09.157-.214.163-.346.007-.133-.04-.262-.129-.36l-10-11zM8 10.25c-.411 0-.815-.112-1.166-.325-.352-.214-.639-.519-.829-.884-.19-.364-.277-.774-.25-1.184.026-.41.164-.806.4-1.143l2.95 3.245c-.337.191-.718.291-1.105.291z"/>
</svg>
