<svg xmlns="http://www.w3.org/2000/svg" width="72" height="72" fill="none" viewBox="0 0 72 72">
    <path fill="#fff" stroke="#E0E0E0" d="M0.5 0.5H71.5V71.5H0.5z"/>
    <path fill="#222" d="M22.5 25.5c0-.828.672-1.5 1.5-1.5h24c.828 0 1.5.672 1.5 1.5S48.828 27 48 27H24c-.828 0-1.5-.672-1.5-1.5zm0 10.5c0-.828.672-1.5 1.5-1.5h24c.828 0 1.5.672 1.5 1.5s-.672 1.5-1.5 1.5H24c-.828 0-1.5-.672-1.5-1.5zm0 10.5c0-.828.672-1.5 1.5-1.5h24c.828 0 1.5.672 1.5 1.5S48.828 48 48 48H24c-.828 0-1.5-.672-1.5-1.5z"/>
</svg>
