<?xml version="1.0" encoding="utf-8"?>
<!-- Generator: Adobe Illustrator 25.2.0, SVG Export Plug-In . SVG Version: 6.00 Build 0)  -->
<svg version="1.1" id="레이어_1" xmlns="http://www.w3.org/2000/svg" xmlns:xlink="http://www.w3.org/1999/xlink" x="0px"
	 y="0px" viewBox="0 0 100 100" style="enable-background:new 0 0 100 100;" xml:space="preserve">
<style type="text/css">
	.st0{fill:#999999;}
	.st1{fill:#FFFFFF;}
</style>
<g>
	<path class="st0" d="M68.3,95.5H31.7c-16.2,0-29.4-13.2-29.4-29.4V33.9c0-16.2,13.2-29.4,29.4-29.4h36.5
		c16.2,0,29.4,13.2,29.4,29.4v32.2C97.6,82.3,84.5,95.5,68.3,95.5"/>
	<path class="st1" d="M50,76.2c-14.4,0-26.2-11.7-26.2-26.2c0-14.4,11.7-26.2,26.2-26.2c14.4,0,26.2,11.7,26.2,26.2
		C76.2,64.4,64.4,76.2,50,76.2 M50,30.4c-10.8,0-19.6,8.8-19.6,19.6c0,10.8,8.8,19.6,19.6,19.6c10.8,0,19.6-8.8,19.6-19.6
		C69.6,39.2,60.8,30.4,50,30.4z"/>
	<path class="st1" d="M81.2,24.7c0,3-2.4,5.4-5.4,5.4c-3,0-5.4-2.4-5.4-5.4c0-3,2.4-5.4,5.4-5.4C78.8,19.2,81.2,21.7,81.2,24.7"/>
</g>
</svg>
