<?xml version="1.0" encoding="utf-8"?>
<!-- Generator: Adobe Illustrator 25.2.0, SVG Export Plug-In . SVG Version: 6.00 Build 0)  -->
<svg version="1.1" id="레이어_1" xmlns="http://www.w3.org/2000/svg" xmlns:xlink="http://www.w3.org/1999/xlink" x="0px"
	 y="0px" viewBox="0 0 100 100" style="enable-background:new 0 0 100 100;" xml:space="preserve">
<style type="text/css">
	.st0{fill:#999999;}
	.st1{fill:#FFFFFF;}
</style>
<g>
	<path class="st0" d="M95.5,27.1c-1.1-4.1-4.3-7.3-8.4-8.4c-7.4-2-37.1-2-37.1-2s-29.7,0-37.1,2c-4.1,1.1-7.3,4.3-8.4,8.4
		c-2,7.4-2,22.9-2,22.9s0,15.5,2,22.9c1.1,4.1,4.3,7.3,8.4,8.4c7.4,2,37.1,2,37.1,2s29.7,0,37.1-2c4.1-1.1,7.3-4.3,8.4-8.4
		c2-7.4,2-22.9,2-22.9S97.5,34.5,95.5,27.1"/>
	<polygon class="st1" points="40.5,64.3 65.2,50 40.5,35.7 	"/>
</g>
</svg>
