<svg xmlns="http://www.w3.org/2000/svg" width="24" height="24" fill="none" viewBox="0 0 24 24">
    <path fill="#222" d="M17 9.17c-.188-.187-.441-.291-.705-.291-.265 0-.518.104-.705.29L12 12.71 8.46 9.17c-.188-.186-.441-.29-.705-.29-.264 0-.518.104-.705.29-.094.094-.168.204-.22.326-.05.122-.076.253-.076.385s.026.262.077.384c.05.122.125.233.219.326l4.24 4.24c.093.093.203.168.325.219.122.05.253.077.385.077s.262-.027.384-.077c.122-.051.233-.126.326-.22L17 10.59c.093-.092.168-.203.219-.325.05-.122.076-.252.076-.384s-.026-.263-.076-.385c-.051-.122-.126-.232-.22-.325z"/>
</svg>
