<svg xmlns="http://www.w3.org/2000/svg" width="24" height="24" fill="none" viewBox="0 0 24 24">
    <path fill="#222" d="M20.87 17.25l-2.71-4.68c.555-1.018.843-2.16.84-3.32 0-1.857-.737-3.637-2.05-4.95-1.313-1.313-3.093-2.05-4.95-2.05-1.856 0-3.637.737-4.95 2.05C5.738 5.613 5 7.393 5 9.25c-.003 1.16.286 2.302.84 3.32l-2.71 4.68c-.088.152-.134.325-.134.501s.047.349.135.5c.088.153.215.279.368.366.152.088.325.134.501.133h2.87l1.46 2.46c.05.081.11.156.18.22.185.179.433.279.69.28h.14c.151-.02.295-.076.422-.16.126-.085.232-.198.308-.33L12 17.9l1.93 3.35c.078.13.183.24.31.324.126.083.27.136.42.156h.14c.261.002.512-.099.7-.28.067-.06.125-.132.17-.21l1.46-2.46H20c.176 0 .35-.045.502-.133.153-.088.28-.214.368-.367.093-.155.143-.334.143-.515s-.05-.36-.143-.515zM9.19 18.78l-.89-1.49c-.088-.148-.212-.27-.36-.356-.15-.086-.318-.132-.49-.134H5.72l1.43-2.48c.985.949 2.226 1.588 3.57 1.84l-1.53 2.62zM12 14.25c-.989 0-1.956-.293-2.778-.843-.822-.55-1.463-1.33-1.841-2.244-.379-.913-.478-1.919-.285-2.888.193-.97.67-1.861 1.369-2.56.699-.7 1.59-1.176 2.56-1.369.97-.193 1.975-.094 2.889.285.913.378 1.694 1.019 2.243 1.841.55.822.843 1.79.843 2.778 0 1.326-.527 2.598-1.464 3.536-.938.937-2.21 1.464-3.536 1.464zm4.55 2.55c-.172.002-.34.048-.49.134-.148.085-.272.208-.36.356l-.89 1.49-1.52-2.65c1.34-.257 2.576-.896 3.56-1.84l1.43 2.48-1.73.03z"/>
</svg>
