<svg xmlns="http://www.w3.org/2000/svg" width="38" height="38" fill="none" viewBox="0 0 38 38">
    <path fill="#222" d="M12.667 1.584c.874 0 1.583.709 1.583 1.583v1.584h9.5V3.167c0-.874.71-1.583 1.584-1.583.874 0 1.583.709 1.583 1.583v1.584h6.333c.42 0 .823.166 1.12.463.297.297.464.7.464 1.12v25.333c0 .42-.167.823-.464 1.12-.297.297-.7.464-1.12.464H4.75c-.42 0-.822-.167-1.12-.464-.296-.297-.463-.7-.463-1.12V6.334c0-.42.167-.823.464-1.12.297-.297.7-.463 1.12-.463h6.333V3.167c0-.874.709-1.583 1.583-1.583zm19 14.25H6.334v14.25h25.333v-14.25zm-8.979 2.918c.618-.618 1.62-.618 2.239 0 .618.618.618 1.62 0 2.239l-6.718 6.718-4.478-4.478c-.619-.619-.619-1.622 0-2.24.62-.619 1.622-.618 2.24 0l2.24 2.24 4.477-4.479zM11.084 7.917h-4.75v4.75h25.333v-4.75h-4.75c0 .875-.709 1.584-1.583 1.584-.875 0-1.584-.71-1.584-1.584h-9.5c0 .875-.709 1.584-1.583 1.584s-1.583-.71-1.583-1.584z"/>
</svg>
