<svg xmlns="http://www.w3.org/2000/svg" width="18" height="18" fill="none" viewBox="0 0 18 18">
    <path fill="#222" d="M9 8.25c-.148 0-.293.044-.417.126-.123.083-.22.2-.276.337-.057.137-.072.288-.043.433.03.146.1.28.206.384.105.105.238.177.384.206.145.029.296.014.433-.043.137-.057.254-.153.337-.276.082-.124.126-.269.126-.417 0-.199-.079-.39-.22-.53-.14-.141-.331-.22-.53-.22zM9 1.5c-1.483 0-2.933.44-4.167 1.264C3.6 3.588 2.64 4.759 2.071 6.13c-.568 1.37-.716 2.878-.427 4.333.29 1.455 1.004 2.791 2.053 3.84 1.049 1.05 2.385 1.764 3.84 2.053 1.455.29 2.963.14 4.333-.427 1.37-.568 2.542-1.529 3.366-2.762C16.06 11.933 16.5 10.483 16.5 9c0-.985-.194-1.96-.57-2.87-.378-.91-.93-1.737-1.627-2.433C13.607 3 12.78 2.447 11.87 2.07 10.96 1.694 9.985 1.5 9 1.5zm.75 13.447V12.75c0-.199-.079-.39-.22-.53C9.39 12.079 9.2 12 9 12s-.39.079-.53.22c-.141.14-.22.331-.22.53v2.197c-1.32-.167-2.547-.768-3.488-1.71-.94-.94-1.542-2.167-1.71-3.487H5.25c.199 0 .39-.079.53-.22C5.921 9.39 6 9.2 6 9s-.079-.39-.22-.53c-.14-.141-.331-.22-.53-.22H3.053c.167-1.32.768-2.547 1.71-3.488.94-.94 2.167-1.542 3.487-1.71V5.25c0 .199.079.39.22.53.14.141.331.22.53.22s.39-.079.53-.22c.141-.14.22-.331.22-.53V3.053c1.32.167 2.547.768 3.488 1.71.94.94 1.542 2.167 1.71 3.487H12.75c-.199 0-.39.079-.53.22-.141.14-.22.331-.22.53s.079.39.22.53c.14.141.331.22.53.22h2.197c-.167 1.32-.768 2.547-1.71 3.488-.94.94-2.167 1.542-3.487 1.71z"/>
</svg>
