<svg xmlns="http://www.w3.org/2000/svg" width="146" height="36" fill="none" viewBox="0 0 146 36">
    <path fill="#e0e0e0" fill-rule="evenodd" d="M57.843 4.065c0-.847-.692-1.534-1.546-1.534H51.3v-.997C51.301.687 50.61 0 49.754 0h-5.63c-.853 0-1.546.687-1.546 1.534v.997h-4.995c-.855 0-1.547.687-1.547 1.534v2.914c0 .847.692 1.534 1.547 1.534h18.714c.854 0 1.546-.687 1.546-1.534V4.065zm13.641 14.111c0-1.906-1.558-3.45-3.48-3.45V2.453c0-.847-.692-1.534-1.546-1.534h-5.583c-.855 0-1.547.687-1.547 1.534V34.36c0 .847.692 1.534 1.547 1.534h5.583c.854 0 1.546-.687 1.546-1.534V21.628c1.922 0 3.48-1.546 3.48-3.452zm-16.24-6.534c-1.422-1.319-3.293-1.979-5.613-1.979h-5.383c-2.32 0-4.19.66-5.614 1.98-1.423 1.288-2.134 3.005-2.134 5.153 0 2.147.711 3.88 2.134 5.2 1.423 1.288 3.295 1.932 5.614 1.932h5.383c2.32 0 4.191-.644 5.614-1.932 1.423-1.32 2.134-3.053 2.134-5.2 0-2.147-.711-3.865-2.134-5.154zm-6.402 5.66c-.155.123-.356.184-.603.184H45.64c-.248 0-.465-.061-.65-.184-.155-.123-.232-.291-.232-.506 0-.215.077-.384.232-.506.185-.123.402-.184.65-.184h2.598c.247 0 .448.061.603.184.186.122.278.291.278.506 0 .215-.092.383-.278.506zm2.46 10.768c0-1.652-1.351-2.991-3.017-2.991h-2.69c-1.667 0-3.017 1.339-3.017 2.99h-5.46c-.854 0-1.546.688-1.546 1.535v3.374c0 .847.692 1.534 1.547 1.534h19.27c.855 0 1.547-.687 1.547-1.534v-3.374c0-.847-.692-1.534-1.547-1.534h-5.088zM26.91 2.722c.534-.136.928-.616.928-1.188 0-.106-.013-.209-.039-.307h3.132c.854 0 1.547.687 1.547 1.534v12.025c0 .848-.693 1.534-1.547 1.534h-3.095c.002-.02.002-.04.002-.06 0-.573-.394-1.053-.928-1.19v-1.304c.534-.136.928-.617.928-1.188 0-.572-.394-1.053-.928-1.189v-1.304c.534-.136.928-.617.928-1.189 0-.571-.394-1.052-.928-1.188V6.404c.534-.137.928-.617.928-1.189 0-.572-.394-1.052-.928-1.188V2.722zm-.619 0v1.305c-.533.136-.928.616-.928 1.188s.395 1.052.928 1.189v1.304c-.533.136-.928.617-.928 1.188 0 .572.395 1.053.928 1.189v1.304c-.533.136-.928.617-.928 1.189 0 .572.395 1.052.928 1.188v1.305c-.533.136-.928.616-.928 1.188 0 .02 0 .041.002.061H2.475c-.855 0-1.547-.686-1.547-1.534V2.761c0-.847.692-1.534 1.547-1.534h22.928c-.025.098-.039.2-.039.307 0 .572.395 1.052.928 1.188zM21.575 7.67c1.205 0 2.18.969 2.18 2.163H9.652c0-1.194.976-2.163 2.18-2.163h9.744zM1.547 18.023C.692 18.023 0 18.71 0 19.557v3.42c0 .848.692 1.534 1.547 1.534h10.795c0 1.474 1.205 2.67 2.691 2.67h3.34c1.487 0 2.692-1.196 2.692-2.67H31.86c.854 0 1.547-.686 1.547-1.534v-3.42c0-.847-.693-1.534-1.547-1.534H1.547zm8.104 9.863c0-.847-.693-1.534-1.547-1.534h-5.63c-.854 0-1.546.687-1.546 1.534v6.503c0 .848.692 1.534 1.547 1.534h28.457c.854 0 1.547-.686 1.547-1.534v-3.834c0-.847-.693-1.534-1.547-1.534H9.651v-1.135zM121.78 12.14c0-.369.301-.668.673-.668h21.072c.855 0 1.547-.686 1.547-1.534V8.206c-.561-.388-.928-1.033-.928-1.763s.367-1.374.928-1.762V3.068c0-.847-.692-1.534-1.547-1.534h-28.457c-.854 0-1.547.687-1.547 1.534v1.258c0 .847.693 1.533 1.547 1.533H135.7c.358 0 .649.289.649.645 0 .355-.291.644-.649.644h-20.632c-.854 0-1.547.687-1.547 1.534v1.826c.561.389.928 1.033.928 1.763s-.367 1.374-.928 1.762V15.6c0 .847.693 1.533 1.547 1.533h9.867v1.427H114.14c-.854 0-1.547.687-1.547 1.534v1.948c0 .847.693 1.534 1.547 1.534h30.313c.855 0 1.547-.687 1.547-1.534v-1.948c0-.847-.692-1.534-1.547-1.534h-10.795v-1.427h10.331c.855 0 1.547-.686 1.547-1.533v-1.258c0-.847-.692-1.534-1.547-1.534h-21.536c-.372 0-.673-.299-.673-.667zm23.292 18.337c0-1.902-.665-3.298-1.995-4.187-1.299-.89-3.062-1.335-5.289-1.335h-16.982c-2.227 0-4.006.445-5.336 1.335-1.299.89-1.949 2.285-1.949 4.187 0 1.902.65 3.298 1.949 4.188 1.33.89 3.109 1.334 5.336 1.334h16.982c2.227 0 3.99-.445 5.289-1.334 1.33-.89 1.995-2.286 1.995-4.188zm-8.212-.69c.247 0 .448.061.603.184.185.123.278.291.278.506 0 .215-.093.383-.278.506-.155.123-.356.184-.603.184h-15.126c-.248 0-.464-.061-.65-.184-.155-.123-.232-.291-.232-.506 0-.215.077-.383.232-.506.186-.123.402-.184.65-.184h15.126zM84.708 13.39c-1.207 1.043-2.614 1.84-4.222 2.393-1.242.41-2.541.659-3.898.746-.664.043-1.255-.387-1.466-1.013l-.825-2.454c-.334-.993.43-2.014 1.434-2.34.995-.323 1.884-.891 2.667-1.704 1.299-1.38 1.948-3.42 1.948-6.12v-.445c0-.847.693-1.534 1.547-1.534h5.583c.854 0 1.547.687 1.547 1.534V2.9c0 2.7.65 4.74 1.949 6.12.782.813 1.67 1.381 2.666 1.704 1.003.326 1.768 1.347 1.434 2.34l-.825 2.454c-.21.626-.802 1.056-1.466 1.014-1.363-.088-2.677-.337-3.944-.747-1.577-.553-2.954-1.35-4.13-2.393zm22.317-7.731h.464c1.666 0 3.016 1.34 3.016 2.991 0 1.652-1.35 2.991-3.016 2.991h-.464v3.39c0 .847-.692 1.534-1.546 1.534h-5.584c-.854 0-1.546-.687-1.546-1.534V2.454c0-.847.692-1.534 1.546-1.534h5.584c.854 0 1.546.687 1.546 1.534V5.66zm-5.258 12.747c-.344 0-.643-.186-.804-.46H77.021c-.854 0-1.547.686-1.547 1.533v1.994c0 .847.693 1.534 1.547 1.534h20.632c.384 0 .696.31.696.69 0 .381-.312.69-.696.69H77.02c-.854 0-1.547.687-1.547 1.534v2.508c.732.345 1.238 1.084 1.238 1.94 0 .857-.506 1.597-1.238 1.942v2.047c0 .847.693 1.534 1.547 1.534h28.922c.854 0 1.546-.687 1.546-1.534v-1.994c0-.847-.692-1.534-1.546-1.534h-21.05c-.384 0-.696-.31-.696-.69 0-.382.312-.69.696-.69h16.009c.135-.36.471-.614.865-.614s.73.254.865.613h2.847c.854 0 1.546-.686 1.546-1.534V19.48c0-.847-.692-1.534-1.546-1.534h-2.908c-.161.275-.461.46-.804.46zm0 3.067c.512 0 .928-.412.928-.92s-.416-.92-.928-.92c-.513 0-.928.412-.928.92s.415.92.928.92zm.928 2.148c0 .508-.416.92-.928.92-.513 0-.928-.412-.928-.92 0-.509.415-.92.928-.92.512 0 .928.411.928.92zm-.928 3.988c.512 0 .928-.412.928-.92 0-.509-.416-.92-.928-.92-.513 0-.928.411-.928.92 0 .508.415.92.928.92z" clip-rule="evenodd"/>
</svg>
