<svg xmlns="http://www.w3.org/2000/svg" width="24" height="24" fill="none" viewBox="0 0 24 24">
    <path fill="#fff" d="M12 11.25c-.148 0-.293.044-.417.126-.123.083-.22.2-.276.337-.057.137-.072.288-.043.433.03.146.1.28.206.384.105.105.238.177.384.206.145.028.296.014.433-.043.137-.057.254-.153.337-.276.082-.124.126-.269.126-.417 0-.199-.079-.39-.22-.53-.14-.141-.331-.22-.53-.22zm0-6.75c-1.483 0-2.933.44-4.167 1.264C6.6 6.588 5.64 7.759 5.071 9.13c-.568 1.37-.716 2.878-.427 4.333.29 1.455 1.004 2.791 2.053 3.84 1.049 1.05 2.385 1.764 3.84 2.053 1.455.29 2.963.14 4.333-.427 1.37-.568 2.542-1.529 3.366-2.762C19.06 14.933 19.5 13.483 19.5 12c0-.985-.194-1.96-.57-2.87-.378-.91-.93-1.737-1.627-2.433C16.607 6 15.78 5.447 14.87 5.07 13.96 4.694 12.985 4.5 12 4.5zm.75 13.448V15.75c0-.199-.079-.39-.22-.53-.14-.141-.331-.22-.53-.22s-.39.079-.53.22c-.141.14-.22.331-.22.53v2.198c-1.32-.168-2.547-.77-3.488-1.71-.94-.941-1.542-2.168-1.71-3.488H8.25c.199 0 .39-.079.53-.22.141-.14.22-.331.22-.53s-.079-.39-.22-.53c-.14-.141-.331-.22-.53-.22H6.053c.167-1.32.768-2.547 1.71-3.488.94-.94 2.167-1.542 3.487-1.71V8.25c0 .199.079.39.22.53.14.141.331.22.53.22s.39-.079.53-.22c.141-.14.22-.331.22-.53V6.053c1.32.167 2.547.768 3.488 1.71.94.94 1.542 2.167 1.71 3.487H15.75c-.199 0-.39.079-.53.22-.141.14-.22.331-.22.53s.079.39.22.53c.14.141.331.22.53.22h2.198c-.168 1.32-.77 2.547-1.71 3.488-.941.94-2.168 1.542-3.488 1.71z"/>
</svg>
