<svg xmlns="http://www.w3.org/2000/svg" width="16" height="16" fill="none" viewBox="0 0 16 16">
    <path fill="#828282" d="M1.333 6h2v8h-2c-.177 0-.346-.07-.471-.195s-.195-.295-.195-.472V6.667c0-.177.07-.347.195-.472S1.156 6 1.333 6zm3.529-.862L9.129.871c.056-.056.132-.09.212-.097.08-.005.16.018.224.066l.568.427c.158.118.278.281.343.467.066.187.075.388.026.58l-.769 3.02H14c.354 0 .693.14.943.39s.39.59.39.943v1.402c0 .175-.034.347-.1.508l-2.063 5.01c-.05.123-.136.227-.246.3-.11.074-.239.113-.37.113h-7.22c-.178 0-.347-.07-.472-.195s-.195-.295-.195-.472V5.61c0-.176.07-.346.195-.47z"/>
</svg>
