<svg xmlns="http://www.w3.org/2000/svg" width="48" height="48" fill="none" viewBox="0 0 48 48">
    <path fill="#222" d="M24 44C12.954 44 4 35.046 4 24S12.954 4 24 4s20 8.954 20 20-8.954 20-20 20zm-4.58-4.666C17.447 35.149 16.304 30.62 16.054 26h-7.93c.39 3.078 1.664 5.976 3.67 8.343 2.004 2.367 4.654 4.101 7.626 4.991zM20.06 26c.302 4.878 1.696 9.46 3.94 13.504 2.305-4.15 3.65-8.765 3.94-13.504h-7.88zm19.816 0h-7.93c-.25 4.62-1.393 9.149-3.366 13.334 2.972-.89 5.622-2.623 7.627-4.99 2.005-2.368 3.28-5.266 3.669-8.344zM8.124 22h7.93c.25-4.62 1.393-9.149 3.366-13.334-2.972.89-5.622 2.623-7.627 4.99-2.005 2.368-3.28 5.266-3.669 8.344zm11.938 0h7.876C27.65 17.261 26.304 12.647 24 8.496c-2.305 4.15-3.65 8.765-3.94 13.504h.002zM28.58 8.666c1.973 4.185 3.116 8.714 3.366 13.334h7.93c-.39-3.078-1.664-5.976-3.67-8.343-2.004-2.367-4.654-4.101-7.626-4.991z"/>
</svg>
