<svg width="146" height="36" viewBox="0 0 146 36" fill="none" xmlns="http://www.w3.org/2000/svg">
    <path fill-rule="evenodd" clip-rule="evenodd" d="M57.843 4.065a1.54 1.54 0 0 0-1.546-1.534H51.3v-.997A1.54 1.54 0 0 0 49.754 0h-5.63a1.54 1.54 0 0 0-1.546 1.534v.997h-4.995a1.54 1.54 0 0 0-1.547 1.534v2.914a1.54 1.54 0 0 0 1.547 1.534h18.714a1.54 1.54 0 0 0 1.546-1.534V4.065zm13.641 14.111c0-1.906-1.558-3.45-3.48-3.45V2.453A1.54 1.54 0 0 0 66.458.92h-5.583a1.54 1.54 0 0 0-1.547 1.534V34.36a1.54 1.54 0 0 0 1.547 1.534h5.583a1.54 1.54 0 0 0 1.546-1.534V21.628c1.922 0 3.48-1.546 3.48-3.452zm-16.24-6.534c-1.422-1.319-3.293-1.979-5.613-1.979h-5.383c-2.32 0-4.19.66-5.614 1.98-1.423 1.288-2.134 3.005-2.134 5.153 0 2.147.711 3.88 2.134 5.2 1.423 1.288 3.295 1.932 5.614 1.932h5.383c2.32 0 4.191-.644 5.614-1.932 1.423-1.32 2.134-3.053 2.134-5.2 0-2.147-.711-3.865-2.134-5.154zm-6.402 5.66c-.155.123-.356.184-.603.184H45.64a1.15 1.15 0 0 1-.65-.184.61.61 0 0 1-.232-.506.61.61 0 0 1 .232-.506 1.15 1.15 0 0 1 .65-.184h2.598c.247 0 .448.061.603.184a.576.576 0 0 1 .278.506.576.576 0 0 1-.278.506zm2.46 10.768c0-1.652-1.351-2.991-3.017-2.991h-2.69c-1.667 0-3.017 1.339-3.017 2.99h-5.46a1.54 1.54 0 0 0-1.546 1.535v3.374a1.54 1.54 0 0 0 1.547 1.534h19.27a1.54 1.54 0 0 0 1.547-1.534v-3.374a1.54 1.54 0 0 0-1.547-1.534h-5.088zM26.91 2.722a1.23 1.23 0 0 0 .889-1.495h3.132a1.54 1.54 0 0 1 1.547 1.534v12.025a1.54 1.54 0 0 1-1.547 1.534h-3.095c.002-.02.002-.04.002-.06a1.23 1.23 0 0 0-.928-1.19v-1.304a1.23 1.23 0 0 0 .928-1.188 1.23 1.23 0 0 0-.928-1.189v-1.304a1.23 1.23 0 0 0 .928-1.189 1.23 1.23 0 0 0-.928-1.188V6.404a1.23 1.23 0 0 0 .928-1.189 1.23 1.23 0 0 0-.928-1.188V2.722zm-.619 0v1.305a1.23 1.23 0 0 0-.928 1.188c0 .572.395 1.052.928 1.189v1.304a1.23 1.23 0 0 0-.928 1.188c0 .572.395 1.053.928 1.189v1.304a1.23 1.23 0 0 0-.928 1.189c0 .572.395 1.052.928 1.188v1.305a1.23 1.23 0 0 0-.926 1.25H2.475a1.54 1.54 0 0 1-1.547-1.535V2.761a1.54 1.54 0 0 1 1.547-1.534h22.928a1.23 1.23 0 0 0 .889 1.495zM21.575 7.67c1.205 0 2.18.969 2.18 2.163H9.652c0-1.194.976-2.163 2.18-2.163h9.744zM1.547 18.023A1.54 1.54 0 0 0 0 19.557v3.42a1.54 1.54 0 0 0 1.547 1.534h10.795c0 1.474 1.205 2.67 2.691 2.67h3.34c1.487 0 2.692-1.196 2.692-2.67H31.86a1.54 1.54 0 0 0 1.547-1.534v-3.42a1.54 1.54 0 0 0-1.547-1.534H1.547zm8.104 9.863a1.54 1.54 0 0 0-1.547-1.534h-5.63a1.54 1.54 0 0 0-1.546 1.534v6.503a1.54 1.54 0 0 0 1.547 1.534h28.457a1.54 1.54 0 0 0 1.547-1.534v-3.834a1.54 1.54 0 0 0-1.547-1.534H9.651v-1.135zM121.78 12.14a.67.67 0 0 1 .673-.668h21.072a1.54 1.54 0 0 0 1.547-1.534V8.206a2.14 2.14 0 0 1 0-3.525V3.068a1.54 1.54 0 0 0-1.547-1.534h-28.457a1.54 1.54 0 0 0-1.547 1.534v1.258a1.54 1.54 0 0 0 1.547 1.533H135.7c.358 0 .649.289.649.645a.647.647 0 0 1-.649.644h-20.632a1.54 1.54 0 0 0-1.547 1.534v1.826a2.14 2.14 0 0 1 0 3.526V15.6a1.54 1.54 0 0 0 1.547 1.533h9.867v1.427H114.14a1.54 1.54 0 0 0-1.547 1.534v1.948a1.54 1.54 0 0 0 1.547 1.534h30.313A1.54 1.54 0 0 0 146 22.042v-1.948a1.54 1.54 0 0 0-1.547-1.534h-10.795v-1.427h10.331a1.54 1.54 0 0 0 1.547-1.533v-1.258a1.54 1.54 0 0 0-1.547-1.534h-21.536a.67.67 0 0 1-.673-.667zm23.292 18.337c0-1.902-.665-3.298-1.995-4.187-1.299-.89-3.062-1.335-5.289-1.335h-16.982c-2.227 0-4.006.445-5.336 1.335-1.299.89-1.949 2.285-1.949 4.187 0 1.902.65 3.298 1.949 4.188 1.33.89 3.109 1.334 5.336 1.334h16.982c2.227 0 3.99-.445 5.289-1.334 1.33-.89 1.995-2.286 1.995-4.188zm-8.212-.69c.247 0 .448.061.603.184a.577.577 0 0 1 .278.506.577.577 0 0 1-.278.506c-.155.123-.356.184-.603.184h-15.126c-.248 0-.464-.061-.65-.184a.61.61 0 0 1-.232-.506.61.61 0 0 1 .232-.506c.186-.123.402-.184.65-.184h15.126zM84.708 13.39c-1.207 1.043-2.614 1.84-4.222 2.393-1.242.41-2.541.659-3.898.746-.664.043-1.255-.387-1.466-1.013l-.825-2.454c-.334-.993.43-2.014 1.434-2.34.995-.323 1.884-.891 2.667-1.704 1.299-1.38 1.948-3.42 1.948-6.12v-.445A1.54 1.54 0 0 1 81.893.92h5.583a1.54 1.54 0 0 1 1.547 1.534V2.9c0 2.7.65 4.74 1.949 6.12.782.813 1.67 1.381 2.666 1.704 1.003.326 1.768 1.347 1.434 2.34l-.825 2.454c-.21.626-.802 1.056-1.466 1.014a16.067 16.067 0 0 1-3.944-.747c-1.577-.553-2.954-1.35-4.13-2.393zm22.317-7.731h.464c1.666 0 3.016 1.34 3.016 2.991 0 1.652-1.35 2.991-3.016 2.991h-.464v3.39a1.54 1.54 0 0 1-1.546 1.534h-5.584a1.54 1.54 0 0 1-1.546-1.534V2.454A1.54 1.54 0 0 1 99.895.92h5.584a1.54 1.54 0 0 1 1.546 1.534V5.66zm-5.258 12.747a.93.93 0 0 1-.804-.46H77.021a1.54 1.54 0 0 0-1.547 1.533v1.994a1.54 1.54 0 0 0 1.547 1.534h20.632c.384 0 .696.31.696.69 0 .381-.312.69-.696.69H77.02a1.54 1.54 0 0 0-1.547 1.534v2.508a2.146 2.146 0 0 1 1.238 1.94c0 .857-.506 1.597-1.238 1.942v2.047a1.54 1.54 0 0 0 1.547 1.534h28.922a1.54 1.54 0 0 0 1.546-1.534v-1.994a1.54 1.54 0 0 0-1.546-1.534h-21.05a.693.693 0 0 1-.696-.69c0-.382.312-.69.696-.69h16.009a.93.93 0 0 1 .865-.614.93.93 0 0 1 .865.613h2.847a1.54 1.54 0 0 0 1.546-1.534V19.48a1.54 1.54 0 0 0-1.546-1.534h-2.908a.93.93 0 0 1-.804.46zm0 3.067a.924.924 0 0 0 .928-.92.924.924 0 0 0-.928-.92.924.924 0 0 0-.928.92c0 .508.415.92.928.92zm.928 2.148c0 .508-.416.92-.928.92a.924.924 0 0 1-.928-.92c0-.509.415-.92.928-.92.512 0 .928.411.928.92zm-.928 3.988a.924.924 0 0 0 .928-.92.924.924 0 0 0-.928-.92.924.924 0 0 0-.928.92c0 .508.415.92.928.92z" fill="#4AC6D2"/>
</svg>
