<svg xmlns="http://www.w3.org/2000/svg" width="18" height="18" fill="none" viewBox="0 0 18 18">
    <path fill="#4AC6D2" d="M13.773 13.023L9 17.796l-4.773-4.773c-.944-.944-1.587-2.147-1.847-3.456-.26-1.31-.127-2.667.384-3.9.51-1.234 1.376-2.288 2.486-3.03C6.36 1.897 7.665 1.5 9 1.5s2.64.396 3.75 1.138c1.11.741 1.975 1.795 2.486 3.029.511 1.233.645 2.59.384 3.9-.26 1.31-.903 2.512-1.847 3.456zM9 11.25c.796 0 1.559-.316 2.121-.879.563-.562.879-1.325.879-2.121s-.316-1.559-.879-2.121c-.562-.563-1.325-.88-2.121-.88s-1.559.317-2.121.88C6.316 6.69 6 7.454 6 8.249c0 .797.316 1.56.879 2.122.562.563 1.325.879 2.121.879zm0-1.5c-.398 0-.78-.158-1.06-.44-.282-.28-.44-.662-.44-1.06s.158-.78.44-1.06c.28-.282.662-.44 1.06-.44s.78.158 1.06.44c.282.28.44.662.44 1.06s-.158.78-.44 1.06c-.28.282-.662.44-1.06.44z"/>
</svg>
