<svg xmlns="http://www.w3.org/2000/svg" width="24" height="24" fill="none" viewBox="0 0 24 24">
    <path fill="#222" d="M9.6 6.184c-.142-.534-.69-.85-1.224-.707-.533.143-.85.691-.707 1.224l.529 1.974c-1.178.434-2.273 1.068-3.237 1.872L3.515 9.101c-.39-.391-1.024-.391-1.415 0-.39.39-.39 1.024 0 1.414l1.447 1.446c-1.002 1.2-1.733 2.598-2.149 4.097-.147.531.217 1.053.76 1.152.544.1 1.06-.264 1.219-.794C4.487 12.705 7.927 10 12 10c4.071 0 7.512 2.705 8.623 6.416.159.53.674.894 1.218.795.543-.099.908-.62.76-1.153-.415-1.499-1.145-2.897-2.147-4.097l1.445-1.446c.391-.39.391-1.024 0-1.414-.39-.391-1.024-.391-1.415 0l-1.445 1.446c-.964-.804-2.06-1.438-3.237-1.872l.528-1.974c.143-.534-.173-1.082-.707-1.225-.533-.142-1.081.174-1.224.707l-.53 1.975c-1.237-.212-2.502-.212-3.74 0l-.528-1.974z"/>
    <circle cx="12" cy="15" r="3" fill="#222"/>
</svg>
