<svg xmlns="http://www.w3.org/2000/svg" width="48" height="48" fill="none" viewBox="0 0 48 48">
    <path fill="#222" d="M14 18c1.326 0 2.598-.527 3.535-1.465C18.473 15.598 19 14.326 19 13s-.527-2.598-1.465-3.536C16.598 8.527 15.326 8 14 8s-2.598.527-3.536 1.464C9.527 10.402 9 11.674 9 13s.527 2.598 1.464 3.535C11.402 17.473 12.674 18 14 18zm0 4c-1.182 0-2.352-.233-3.444-.685-1.092-.452-2.084-1.115-2.92-1.951-.836-.836-1.499-1.828-1.95-2.92C5.232 15.352 5 14.182 5 13s.233-2.352.685-3.444c.452-1.092 1.115-2.084 1.951-2.92.836-.836 1.828-1.499 2.92-1.95C11.648 4.232 12.818 4 14 4c2.387 0 4.676.948 6.364 2.636C22.052 8.324 23 10.613 23 13s-.948 4.676-2.636 6.364C18.676 21.052 16.387 22 14 22zm21 4c1.06 0 2.078-.421 2.828-1.172C38.578 24.078 39 23.061 39 22c0-1.06-.421-2.078-1.172-2.828C37.078 18.422 36.061 18 35 18c-1.06 0-2.078.421-2.828 1.172C31.422 19.922 31 20.939 31 22c0 1.06.421 2.078 1.172 2.828.75.75 1.767 1.172 2.828 1.172zm0 4c-2.122 0-4.157-.843-5.657-2.343S27 24.122 27 22s.843-4.157 2.343-5.657S32.878 14 35 14s4.157.843 5.657 2.343S43 19.878 43 22s-.843 4.157-2.343 5.657S37.122 30 35 30zm6 12c-.552 0-1-.448-1-1 0-1.326-.527-2.598-1.465-3.535C37.599 36.526 36.326 36 35 36s-2.598.527-3.535 1.465C30.527 38.401 30 39.674 30 41c0 .552-.448 1-1 1h-2c-.552 0-1-.448-1-1 0-1.182.233-2.352.685-3.444.452-1.092 1.115-2.084 1.951-2.92.836-.836 1.828-1.499 2.92-1.95C32.648 32.232 33.818 32 35 32s2.352.233 3.444.685c1.092.452 2.084 1.115 2.92 1.951.836.836 1.499 1.828 1.95 2.92.453 1.092.686 2.262.686 3.444 0 .552-.448 1-1 1h-2zm-19 0c-1.105 0-2-.895-2-2v-6c0-1.591-.632-3.117-1.757-4.243C17.117 28.632 15.59 28 14 28c-1.591 0-3.117.632-4.243 1.757C8.632 30.883 8 32.41 8 34v6c0 1.105-.895 2-2 2s-2-.895-2-2v-6c0-2.652 1.054-5.196 2.929-7.071C8.804 25.054 11.348 24 14 24s5.196 1.054 7.071 2.929C22.946 28.804 24 31.348 24 34v6c0 1.105-.895 2-2 2z"/>
</svg>
