<svg xmlns="http://www.w3.org/2000/svg" width="20" height="20">
    <g data-name="그룹 108">
        <path data-name="사각형 211" style="fill:none" d="M0 0h20v20H0z"/>
    </g>
    <g data-name="그룹 109">
        <path data-name="패스 56" d="M16.666 7.5V5H15v2.5h-2.5v1.666H15v2.5h1.667v-2.5h2.5V7.5zM7.499 10a3.36 3.36 0 1 0-3.333-3.334A3.332 3.332 0 0 0 7.5 10zm0-5a1.667 1.667 0 1 1-1.666 1.666A1.672 1.672 0 0 1 7.5 5zm5.326 7.133a11.556 11.556 0 0 0-10.65 0A2.476 2.476 0 0 0 .833 14.35v2.317h13.333V14.35a2.476 2.476 0 0 0-1.341-2.217zM12.5 15h-10v-.65a.809.809 0 0 1 .433-.733A10.09 10.09 0 0 1 7.5 12.5a10.09 10.09 0 0 1 4.567 1.117.809.809 0 0 1 .433.733z"/>
    </g>
</svg>
