<svg xmlns="http://www.w3.org/2000/svg" width="32" height="32" fill="none" viewBox="0 0 32 32">
    <path stroke="#E0E0E0" stroke-linecap="round" stroke-linejoin="round" d="M16 28c6.627 0 12-5.373 12-12S22.627 4 16 4 4 9.373 4 16s5.373 12 12 12z"/>
    <path stroke="#E0E0E0" stroke-linecap="round" stroke-linejoin="round" d="M21.197 19c-.527.912-1.285 1.669-2.197 2.195-.912.526-1.947.804-3 .804s-2.088-.277-3-.804c-.912-.526-1.67-1.283-2.197-2.195"/>
    <path fill="#E0E0E0" d="M11.5 15c.828 0 1.5-.672 1.5-1.5s-.672-1.5-1.5-1.5-1.5.672-1.5 1.5.672 1.5 1.5 1.5zM20.5 15c.828 0 1.5-.672 1.5-1.5s-.672-1.5-1.5-1.5-1.5.672-1.5 1.5.672 1.5 1.5 1.5z"/>
</svg>
