<svg xmlns="http://www.w3.org/2000/svg" width="16" height="16" fill="none" viewBox="0 0 16 16">
    <path fill="#828282" d="M9.733 5.334H14c.354 0 .693.14.943.39s.39.59.39.943V8.07c0 .174-.034.346-.1.508l-2.063 5.01c-.05.122-.136.226-.246.3-.11.073-.239.112-.37.112H1.333c-.178 0-.347-.07-.472-.195s-.195-.295-.195-.471V6.667c0-.177.07-.346.195-.471S1.156 6 1.333 6h2.322c.106 0 .212-.025.306-.074.095-.05.177-.12.238-.208L7.835.567c.046-.065.113-.112.19-.131.078-.02.16-.01.231.025l1.21.605c.34.17.612.451.77.797.158.346.193.736.1 1.105l-.603 2.366zM4.667 7.059v5.608h7.44L14 8.07V6.667H9.733c-.203 0-.403-.047-.586-.136-.182-.089-.342-.219-.466-.38-.125-.16-.211-.346-.253-.545-.041-.199-.037-.404.013-.601l.602-2.365c.02-.074.012-.152-.02-.221-.031-.07-.086-.126-.154-.16l-.44-.22-3.14 4.448c-.167.236-.38.43-.622.572zm-1.334.275H2v5.333h1.333V7.334z"/>
</svg>
