<svg xmlns="http://www.w3.org/2000/svg" width="24" height="24" fill="none" viewBox="0 0 24 24">
    <path fill="#C4C4C4" d="M22 5.8c-.752.326-1.547.542-2.36.64.858-.512 1.501-1.319 1.81-2.27-.806.48-1.69.819-2.61 1-.616-.667-1.435-1.111-2.33-1.263-.895-.151-1.816-.001-2.616.426-.801.428-1.437 1.11-1.809 1.938-.372.828-.458 1.757-.245 2.64-1.63-.083-3.226-.508-4.681-1.247-1.456-.739-2.74-1.776-3.769-3.044-.36.63-.55 1.344-.55 2.07-.001.675.164 1.339.482 1.934.317.595.777 1.102 1.338 1.476-.652-.018-1.29-.192-1.86-.51v.05c.005.945.336 1.86.937 2.588.602.729 1.436 1.228 2.363 1.412-.357.109-.727.166-1.1.17-.258-.003-.516-.026-.77-.07.264.813.775 1.523 1.461 2.032.687.51 1.515.792 2.369.808-1.443 1.136-3.224 1.755-5.06 1.76-.334.001-.668-.019-1-.06 1.874 1.21 4.059 1.853 6.29 1.85 1.54.016 3.067-.275 4.493-.856 1.426-.58 2.722-1.44 3.812-2.527 1.09-1.088 1.953-2.381 2.538-3.806.584-1.424.879-2.951.867-4.49v-.53c.785-.586 1.462-1.303 2-2.12z"/>
</svg>
