<svg xmlns="http://www.w3.org/2000/svg" width="48" height="48" fill="none" viewBox="0 0 48 48">
    <path fill="#222" d="M10 44c-1.105 0-2.013-.899-1.875-1.995.44-3.508 2.035-6.792 4.561-9.319 3-3 7.07-4.686 11.314-4.686s8.313 1.686 11.314 4.686c2.526 2.527 4.12 5.811 4.561 9.32C40.013 43.1 39.105 44 38 44s-1.983-.902-2.166-1.99c-.411-2.445-1.573-4.72-3.349-6.495C30.235 33.265 27.183 32 24 32s-6.235 1.264-8.485 3.515c-1.776 1.775-2.938 4.05-3.349 6.494C11.983 43.1 11.105 44 10 44zm14-18c-6.63 0-12-5.37-12-12S17.37 2 24 2s12 5.37 12 12-5.37 12-12 12zm0-4c4.42 0 8-3.58 8-8s-3.58-8-8-8-8 3.58-8 8 3.58 8 8 8z"/>
</svg>
